<!-- Ícone principal do app - Representa adivinhação com elementos visuais -->
<svg width="512" height="512" viewBox="0 0 512 512" fill="none" xmlns="http://www.w3.org/2000/svg">
  <!-- Background gradient -->
  <defs>
    <linearGradient id="bg" x1="0%" y1="0%" x2="100%" y2="100%">
      <stop offset="0%" style="stop-color:#3b82f6;stop-opacity:1" />
      <stop offset="50%" style="stop-color:#8b5cf6;stop-opacity:1" />
      <stop offset="100%" style="stop-color:#ec4899;stop-opacity:1" />
    </linearGradient>
    <linearGradient id="questionMark" x1="0%" y1="0%" x2="100%" y2="100%">
      <stop offset="0%" style="stop-color:#ffffff;stop-opacity:1" />
      <stop offset="100%" style="stop-color:#f1f5f9;stop-opacity:1" />
    </linearGradient>
  </defs>
  
  <!-- Background circle with rounded corners -->
  <rect width="512" height="512" rx="115" fill="url(#bg)"/>
  
  <!-- Main question mark -->
  <path d="M256 140c-45 0-82 37-82 82 0 15 12 27 27 27s27-12 27-27c0-15 12-27 28-27s28 12 28 27c0 8-3 15-9 20l-25 22c-12 11-19 26-19 42v8c0 15 12 27 27 27s27-12 27-27v-8c0-5 2-10 6-13l25-22c18-16 29-39 29-64 0-45-37-82-82-82z" fill="url(#questionMark)"/>
  
  <!-- Dot of question mark -->
  <circle cx="256" cy="385" r="25" fill="url(#questionMark)"/>
  
  <!-- Decorative elements - category icons around -->
  <!-- Film icon -->
  <rect x="100" y="100" width="40" height="30" rx="5" fill="rgba(255,255,255,0.3)" stroke="rgba(255,255,255,0.5)" stroke-width="2"/>
  <circle cx="110" cy="110" r="3" fill="rgba(255,255,255,0.5)"/>
  <circle cx="130" cy="110" r="3" fill="rgba(255,255,255,0.5)"/>
  
  <!-- Music note -->
  <ellipse cx="380" cy="120" rx="8" ry="6" fill="rgba(255,255,255,0.3)"/>
  <rect x="388" y="105" width="3" height="25" fill="rgba(255,255,255,0.3)"/>
  <path d="M388 105 L398 102 L398 108 L391 110 Z" fill="rgba(255,255,255,0.3)"/>
  
  <!-- Animal paw -->
  <circle cx="120" cy="380" r="6" fill="rgba(255,255,255,0.3)"/>
  <circle cx="110" cy="370" r="4" fill="rgba(255,255,255,0.3)"/>
  <circle cx="130" cy="370" r="4" fill="rgba(255,255,255,0.3)"/>
  <circle cx="120" cy="355" r="4" fill="rgba(255,255,255,0.3)"/>
  
  <!-- Location pin -->
  <path d="M390 370 L390 390 L400 385 Z" fill="rgba(255,255,255,0.3)"/>
  <circle cx="390" cy="375" r="5" fill="rgba(255,255,255,0.3)"/>
  
  <!-- Lightning decoration -->
  <path d="M70 250 L85 230 L80 245 L90 225 L75 245 L80 260 Z" fill="rgba(255,255,255,0.2)"/>
  <path d="M430 280 L445 260 L440 275 L450 255 L435 275 L440 290 Z" fill="rgba(255,255,255,0.2)"/>
</svg>
