<?xml version="1.0" encoding="UTF-8"?>
<svg width="512" height="512" viewBox="0 0 512 512" fill="none" xmlns="http://www.w3.org/2000/svg">
  <!-- Background gradient -->
  <rect width="512" height="512" rx="128" fill="url(#paint0_linear)" />
  
  <!-- Target circles -->
  <circle cx="256" cy="256" r="160" stroke="white" stroke-width="12" stroke-opacity="0.8" />
  <circle cx="256" cy="256" r="120" stroke="white" stroke-width="12" stroke-opacity="0.8" />
  <circle cx="256" cy="256" r="80" stroke="white" stroke-width="12" stroke-opacity="0.8" />
  
  <!-- Bullseye -->
  <circle cx="256" cy="256" r="40" fill="white" />
  
  <!-- Question mark overlay -->
  <path d="M256 170C238.33 170 224 184.33 224 202C224 219.67 238.33 234 256 234C273.67 234 288 219.67 288 202C288 184.33 273.67 170 256 170ZM256 320C247.17 320 240 327.17 240 336C240 344.83 247.17 352 256 352C264.83 352 272 344.83 272 336C272 327.17 264.83 320 256 320ZM256 138C291.33 138 320 166.67 320 202C320 219.67 310.67 235.33 296 244.33V266C296 274.83 288.83 282 280 282H232C223.17 282 216 274.83 216 266V244.33C201.33 235.33 192 219.67 192 202C192 166.67 220.67 138 256 138Z" fill="#3b82f6" />
  
  <!-- Gradient definition -->
  <defs>
    <linearGradient id="paint0_linear" x1="0" y1="0" x2="512" y2="512" gradientUnits="userSpaceOnUse">
      <stop offset="0" stop-color="#4f46e5" />
      <stop offset="1" stop-color="#3b82f6" />
    </linearGradient>
  </defs>
</svg>
